<svg id="Layer_1" data-name="Layer 1" xmlns="http://www.w3.org/2000/svg" width="730.06" height="211.57" viewBox="0 0 730.06 211.57"><title>university-of-iowa-logo</title><polygon points="93.72 44.05 76.61 44.05 76.61 166.82 93.72 166.82 93.72 211.33 0 211.33 0 166.82 17.1 166.82 17.1 44.05 0 44.05 0 0 93.72 0 93.72 44.05"/><path d="M210.53,436V313.26H181V436Zm19.21,44.52h-68c-24.6,0-40.77-16.17-40.77-42.64v-126c0-26.24,16.41-42.64,40.77-42.64h68c24.6,0,40.76,16.4,40.76,42.64V437.91C270.5,464.15,254.1,480.55,229.74,480.55Z" transform="translate(-9.97 -269.22)"/><polygon points="287.25 44.05 272.25 44.05 272.25 0 361.28 0 361.28 44.28 344.41 44.28 359.64 145.97 391.27 0 436.26 0 470 145.97 482.18 44.28 466.71 44.28 466.71 0 554.58 0 554.58 44.28 540.05 44.28 513.57 211.57 441.88 211.57 414.23 86.92 385.88 211.33 317 211.33 287.25 44.05"/><path d="M657.79,390.35,644.2,305.06l-14.05,85.29ZM549.08,436h16.17l32.1-166.81h96.06L725,436h15v44.52H668.34L661.54,429H625.93l-6.33,51.55H549.32Z" transform="translate(-9.97 -269.22)"/></svg>